<?xml version="1.0" encoding="UTF-8"?>
<svg id="Camada_1" data-name="Camada 1" xmlns="http://www.w3.org/2000/svg" version="1.1" viewBox="0 0 18 18">
  <defs>
    <style>
      .cls-1 {
        fill: #fff;
        stroke-width: 0px;
      }
    </style>
  </defs>
  <path class="cls-1" d="M17.6,8.8c-.2.6-.6.9-1,1.2-.7.6-1.6.8-2.5.9-1,0-2.1,0-3.1-.1-1,0-1.9-.2-2.9-.1-1.2,0-2.3.5-3.2,1.4,0,0,0,0,0,0,0-.3-.2-.5-.2-.8-.7-2.5-1.4-5-2.1-7.5,0,0,0,0,0,0-.1-.2,0-.4.1-.5.7-.7,1.6-1,2.6-1.2.9-.1,1.9,0,2.8,0,1.1.1,2.3.3,3.4.2,1.5,0,2.7-.6,3.6-1.8,0,0,0,0,0,0,0,0,.1,0,.2,0,0,0,0,.2,0,.3,0,.2,0,.4,0,.5-.2,1.6-.5,3.2-1,4.8,0,.2,0,.3.1.4.9.8,1.9,1.5,3,2,0,0,.1.1.2.2h0Z"/>
  <path class="cls-1" d="M4.4,17.6c-.3-.1-.4-.3-.4-.6C2.8,12.8,1.6,8.6.5,4.4c0,0,0-.1,0-.2,0-.1,0-.2,0-.3,0,0,0,0,0-.1.1-.3.4-.5.8-.5.3,0,.6.2.6.5.3,1.1.6,2.3,1,3.4.9,3.1,1.7,6.2,2.6,9.3,0,0,0,.2,0,.2,0,.3-.1.5-.4.6-.1,0-.2,0-.3.1h-.3Z"/>
</svg>